<svg height="405.37" viewBox="0 0 397.7 405.37" width="397.7" xmlns="http://www.w3.org/2000/svg"><g transform="translate(-52.15 -32.77)"><path d="m347.15 309v-47.87h-149.62l34-50.28 7.87-10.41 26.74-35.32a2 2 0 0 0 -.75-3.06l-.66-.3.41-.61 1-46-51.06 33.85c-3-.21-6-.34-9-.37-63.64-.63-118.19 40.66-137.73 97.72l-7.2 4.78v29.64c-.38 4.58-.55 9.21-.48 13.9 1.09 78.59 65.13 135 144 135 73.41 0 134-47.94 142.87-118.94a2.52 2.52 0 0 0 -.39-1.73z" fill="#f56b8b"/><path d="m272.92 170.23-34.47 45.55-24.92 36.85 142.12 9v41a49.66 49.66 0 0 1 .31 9.13c-9.52 76-74.57 126.37-151.31 126.37a151.57 151.57 0 0 1 -107.12-44c-28.69-28.32-44.8-59.1-45.36-99.38-.07-4.73.1-26.35.48-31.16v-17l8.64-5.79a154.92 154.92 0 0 1 54.41-71.8 151 151 0 0 1 90.44-28.84q3.23 0 6.62.21l61.89-28.72-.94 47.07m-204.06 97v25.78c-.36 4.38-.51 8.78-.45 13.08.49 35.79 14.81 62.36 40.3 87.52a134.68 134.68 0 0 0 95.18 39.06c67.5 0 124.81-42.91 134.17-109.44l-.17-.27v-41.82h-151.19l2-11.73 1-1.55 34.27-50.65 29.75-39.31 2.14-2.76.06-5.19.59-27.24-39.94 26.5-2.89-.21c-2.92-.21-5.78-.33-8.49-.35h-1.32a134 134 0 0 0 -79 25.63 137.7 137.7 0 0 0 -49.27 66.35l-.93 2.73z" fill="#781000"/><path d="m345.12 257.73-63.79-8-60.33-7.5a27.17 27.17 0 0 1 -18.3-43.36l36.67-48.45 26.74-35.32a2 2 0 0 0 -.75-3.06 143.27 143.27 0 0 0 -59.34-13.4c-80.52-.78-146.51 65.51-145.39 146a144 144 0 0 0 286.85 16 2.67 2.67 0 0 0 -2.37-3z" fill="#ffb990" stroke="#781000" stroke-miterlimit="10" stroke-width="17"/><path d="m441.11 200.78.22-43.51-35.27-41.16-5.41-12.82a19.5 19.5 0 0 0 -15.76-11.88l-.24-.28-.41.22a19.45 19.45 0 0 0 -17.39 7.72l-2.29 3-62.42 34v56a19.64 19.64 0 0 0 17.22 18.52l49.9 6.24 49.91 6.23a19.69 19.69 0 0 0 21.88-16.41 19.32 19.32 0 0 0 .06-5.87z" fill="#f56b8b"/><path d="m421.71 231.78a28.86 28.86 0 0 1 -3.57-.22l-99.81-12.47a28.18 28.18 0 0 1 -23.25-19.09l-.43-2.35-1-5.5v-55.5l65.24-41.15 1.18-1.56a28 28 0 0 1 22.15-11.17l4.41-2.4 2.78 3.25a27.83 27.83 0 0 1 19.07 16.38l4.89 11.6 36.48 42.57-.24 46.07a28.14 28.14 0 0 1 -27.9 31.56zm-111.08-40.57v.46a11.1 11.1 0 0 0 9.78 10.55l99.81 12.47a11.19 11.19 0 0 0 12.44-9.34 10.81 10.81 0 0 0 0-3.31l-.1-.65.21-41-34.07-39.77-5.92-14a11.05 11.05 0 0 0 -8.92-6.73h-.4a11 11 0 0 0 -9.88 4.38l-3.39 4.48-59.6 32.5z" fill="#781000"/><path d="m420.2 99.63 19.55 46.37a19.66 19.66 0 0 1 -20.55 27.16l-49.91-6.23-49.9-6.24a19.66 19.66 0 0 1 -13.25-31.38l30.35-40.1 30.36-40.1a19.66 19.66 0 0 1 33.8 4.22z" fill="#ffb990" stroke="#781000" stroke-miterlimit="10" stroke-width="17"/><g fill="#781000"><path d="m355.12 188.16v-20.46a8.5 8.5 0 0 1 8.46-8.53 8.5 8.5 0 0 1 8.54 8.47v20.46a8.5 8.5 0 0 1 -8.47 8.53 8.5 8.5 0 0 1 -8.53-8.47z"/><path d="m382.11 184.08v-15.84a6.67 6.67 0 0 1 6.74-6.61 6.69 6.69 0 0 1 6.8 6.55v15.84a6.67 6.67 0 0 1 -6.74 6.61 6.69 6.69 0 0 1 -6.8-6.55z"/><path d="m186.12 408.16v-20.46a8.5 8.5 0 0 1 8.46-8.53 8.5 8.5 0 0 1 8.54 8.47v20.46a8.5 8.5 0 0 1 -8.47 8.53 8.5 8.5 0 0 1 -8.53-8.47z"/><path d="m213.11 404.08v-15.84a6.67 6.67 0 0 1 6.74-6.61 6.69 6.69 0 0 1 6.8 6.55v15.84a6.67 6.67 0 0 1 -6.74 6.61 6.69 6.69 0 0 1 -6.8-6.55z"/></g></g></svg>