<svg enable-background="new 0 0 259 225.6" viewBox="0 0 259 225.6" xmlns="http://www.w3.org/2000/svg">
	<path
		d="m21 217c-9.1 0-16.5-7.4-16.5-16.5v-140c0-9.1 7.4-16.5 16.5-16.5h217c9.1 0 16.5 7.4 16.5 16.5v140c0 9.1-7.4 16.5-16.5 16.5z"
		fill="#4c5563" />
	<path
		d="m217.2 27h-.5l-86.7 17.8-87.8-17.8h-.5c-9.1 0-16.5 7.4-16.5 16.5v140c0 8.9 7.1 16.2 16 16.5l88 17.9v.1l.3-.1.3.1v-.1l88-17.9c8.9-.3 16-7.6 16-16.5v-140c-.1-9.1-7.5-16.5-16.6-16.5z"
		fill="#998ac1" />
	<path
		d="m191.2 4.5-62 42-.2 84.5-.3-84.5-61-42c-6.6 0-12 5.4-12 12v140c0 4.1 2.1 7.8 5.3 9.9l67.7 47.7v2.3l69.2-50.1c3.2-2.2 5.3-5.8 5.3-9.9v-140c0-6.5-5.4-11.9-12-11.9z"
		fill="#c4b7da" />
	<path
		d="m238 39.5h-.1c-1.9-9.7-10.4-17-20.6-17h-.9l-.9.2-7.7 1.6v-7.8c0-9.1-7.4-16.5-16.5-16.5h-1.4l-57.4 39.5h-6l-57.4-39.5h-1.4c-9.1 0-16.5 7.4-16.5 16.5v7.8l-7.7-1.6-.9-.2h-.9c-10.2 0-18.7 7.3-20.6 17h-.1c-11.6 0-21 9.4-21 21v140c0 11.6 9.4 21 21 21h96.9c1 1.7 3.7 3.1 7.3 3.7h.2c1.3.2 2.6.3 4 .3 5.5 0 10.2-1.7 11.6-4.1h97c11.6 0 21-9.4 21-21v-140c0-11.5-9.4-20.9-21-20.9zm-102.8 9 13.1-9 6-4.2 38.1-26.2c3.5.6 6.3 3.7 6.3 7.4v9.6 9.2 4.2 9 108c0 2.5-1.2 4.8-3.3 6.2l-60.7 44.5zm-74.9 0v-9-4.2-9.2-9.6c0-3.7 2.7-6.8 6.3-7.4l38.1 26.2 6 4.2 13.1 9 .5 156.9-60.7-42.7c-2.1-1.4-3.3-3.7-3.3-6.2zm-39.3 164c-6.6 0-12-5.4-12-12v-140c0-6.5 5.3-11.9 11.8-12v135c0 11.2 8.9 20.4 20 21l38.9 8zm20.8-17c-6.6 0-12-5.4-12-12v-135-5c0-1.4.3-2.7.7-4 1.7-4.6 6.1-8 11.3-8l9.5 2v6 9 108c0 5.5 2.7 10.6 7.2 13.6l57.8 40.7zm158.7-25.4c4.5-3.1 7.2-8.2 7.2-13.6v-108-9-6l9.5-2c5.2 0 9.6 3.4 11.3 8 .4 1.3.7 2.6.7 4v5 135c0 6.6-5.4 12-12 12l-71.3 14.7zm49.5 30.4c0 6.6-5.4 12-12 12h-58.7l38.9-8c11.1-.5 20-9.7 20-21v-135c6.5.1 11.8 5.5 11.8 12z" />
</svg>